<svg id="Capa_1" enable-background="new 0 0 512 512" height="512" viewBox="0 0 512 512" width="512" xmlns="http://www.w3.org/2000/svg"><g><g clip-rule="evenodd" fill-rule="evenodd"><path d="m25.697 165.63c-5.33 0-7.768 2.354-7.768 7.768v102.36c0 26.505 21.459 47.991 47.963 47.991l77.585-1.615v-156.504z" fill="#bed8fb"/><path d="m54.695 322.417c3.004.709 6.094 1.162 9.298 1.275h3.912l75.572-1.559v-156.503h-51.846v110.071c0 22.705-15.76 41.727-36.936 46.716z" fill="#9dc6fb"/><path d="m224.407 323.749h-158.514c26.504 0 47.991-21.486 47.991-47.991v-220.283c0-26.505 21.486-47.963 47.991-47.963l47.991.652z" fill="#ddeafb"/><path d="m224.407 323.749h-38.835v-268.274c0-22.31-15.222-41.046-35.858-46.432 3.884-.992 7.965-1.531 12.161-1.531l47.991.652z" fill="#cbe2ff"/><path d="m494.099 496.749v-441.274c0-26.505-21.487-47.963-47.992-47.963h-284.233c26.476 0 47.963 21.458 47.963 47.963v441.274c0 5.301 2.608 6.576 7.058 4.535l21.402-9.779c4.62-2.098 9.496-2.125 14.145 0l21.402 9.779c4.876 2.24 9.582 2.07 14.117 0l21.402-9.779c4.762-2.183 9.695-2.041 14.145 0l21.402 9.779c4.819 2.212 9.638 2.041 14.117 0l21.402-9.779c4.989-2.296 9.524-2.098 14.145 0l21.374 9.779c5.074 2.325 9.723 2.014 14.145 0l21.402-9.779c4.706-2.154 9.581-2.068 14.117 0l21.401 9.779c5.187 2.354 7.086.908 7.086-4.535z" fill="#f5faff"/><path d="m494.099 496.749v-441.274c0-26.505-21.487-47.963-47.992-47.963h-24.265c26.504 0 47.963 21.458 47.963 47.963v437.958l17.206 7.852c5.189 2.353 7.088.907 7.088-4.536z" fill="#ecf4ff"/><path d="m259.643 389.315h28.148c4.28 0 7.767 3.486 7.767 7.767v28.148c0 4.28-3.487 7.767-7.767 7.767h-28.148c-4.28 0-7.767-3.486-7.767-7.767v-28.148c-.001-4.28 3.486-7.767 7.767-7.767zm0-155.312h28.148c4.28 0 7.767 3.487 7.767 7.767v28.148c0 4.252-3.487 7.767-7.767 7.767h-28.148c-4.28 0-7.767-3.516-7.767-7.767v-28.148c-.001-4.28 3.486-7.767 7.767-7.767zm0 77.643h28.148c4.28 0 7.767 3.515 7.767 7.767v28.147c0 4.281-3.487 7.767-7.767 7.767h-28.148c-4.28 0-7.767-3.486-7.767-7.767v-28.147c-.001-4.253 3.486-7.767 7.767-7.767z" fill="#77c9a5"/></g><path d="m202.354 427.895c0-4.139 3.345-7.512 7.483-7.512s7.512 3.373 7.512 7.512v64.972l24.917-11.396c2.041-.936 4.309-.851 6.208 0l32.429 14.825 32.428-14.825c2.041-.936 4.309-.851 6.208 0l32.429 14.825 32.429-14.825c2.04-.936 4.309-.851 6.207 0l32.429 14.825 32.429-14.825c2.041-.936 4.309-.851 6.208 0l24.916 11.396v-437.392c0-11.168-4.535-21.288-11.849-28.603-7.342-7.341-17.461-11.877-28.63-11.877h-246.304c11.225 10.545 17.546 25.087 17.546 40.479v338.433c0 4.139-3.373 7.512-7.512 7.512s-7.483-3.373-7.483-7.512v-62.675h-136.461c-15.308 0-29.169-6.208-39.232-16.242-10.035-10.035-16.243-23.926-16.243-39.232v-38.069c0-4.167 3.374-7.513 7.512-7.513 4.139 0 7.484 3.346 7.484 7.513v38.069c0 11.168 4.535 21.288 11.877 28.631 7.314 7.313 17.433 11.849 28.602 11.849 11.197 0 21.316-4.535 28.63-11.849 7.313-7.343 11.849-17.463 11.849-28.631v-102.644h-80.958v30.586c0 4.139-3.345 7.512-7.484 7.512-4.138 0-7.512-3.373-7.512-7.512v-38.07c0-4.166 3.374-7.512 7.512-7.512h88.442v-42.407c0-4.139 3.374-7.512 7.513-7.512 4.138 0 7.483 3.373 7.483 7.512v160.047c0 15.307-6.208 29.197-16.243 39.232-.425.425-.851.821-1.275 1.247h98.505v-260.762c0-11.168-4.536-21.288-11.878-28.603-7.313-7.341-17.433-11.877-28.602-11.877-11.197 0-21.317 4.536-28.63 11.877-7.342 7.314-11.877 17.434-11.877 28.603v26.25c0 4.166-3.345 7.512-7.483 7.512-4.139 0-7.513-3.346-7.513-7.512v-26.25c0-15.308 6.208-29.169 16.271-39.231 10.034-10.036 23.896-16.244 39.231-16.244h284.233c15.308 0 29.197 6.208 39.232 16.243 10.035 10.063 16.243 23.924 16.243 39.231v449.042c0 5.329-5.641 9.042-10.602 6.803l-32.428-14.825-32.429 14.797c-1.899.879-4.139.964-6.208.028l-32.429-14.825-32.4 14.797c-1.928.879-4.167.964-6.236.028l-32.429-14.825-32.4 14.797c-1.899.879-4.167.964-6.237.028l-32.4-14.825-31.834 14.542c-1.105.623-2.353.964-3.713.964-4.139 0-7.483-3.345-7.483-7.483zm49.521-46.092h43.683c4.139 0 7.483 3.373 7.483 7.513v43.682c0 4.139-3.345 7.483-7.483 7.483h-43.683c-4.139 0-7.512-3.345-7.512-7.483v-43.682c.001-4.14 3.374-7.513 7.512-7.513zm36.171 14.996h-28.688v28.687h28.688zm-36.171-92.638h43.683c4.139 0 7.483 3.346 7.483 7.484v43.682c0 4.139-3.345 7.512-7.483 7.512h-43.683c-4.139 0-7.512-3.373-7.512-7.512v-43.682c.001-4.138 3.374-7.484 7.512-7.484zm36.171 14.996h-28.688v28.687h28.688zm-36.171-92.666h43.683c4.139 0 7.483 3.373 7.483 7.512v43.683c0 4.139-3.345 7.483-7.483 7.483h-43.683c-4.139 0-7.512-3.344-7.512-7.483v-43.683c.001-4.139 3.374-7.512 7.512-7.512zm36.171 14.995h-28.688v28.688h28.688zm36.256 190.746c-4.139 0-7.484-3.346-7.484-7.484 0-4.139 3.345-7.512 7.484-7.512h109.475c4.138 0 7.512 3.373 7.512 7.512s-3.374 7.484-7.512 7.484zm0-27.156c-4.139 0-7.484-3.373-7.484-7.512s3.345-7.512 7.484-7.512h133.74c4.138 0 7.512 3.373 7.512 7.512s-3.374 7.512-7.512 7.512zm0-50.486c-4.139 0-7.484-3.373-7.484-7.512s3.345-7.483 7.484-7.483h109.475c4.138 0 7.512 3.345 7.512 7.483 0 4.139-3.374 7.512-7.512 7.512zm0-27.185c-4.139 0-7.484-3.345-7.484-7.512 0-4.139 3.345-7.483 7.484-7.483h133.74c4.138 0 7.512 3.345 7.512 7.483 0 4.167-3.374 7.512-7.512 7.512zm0-50.485c-4.139 0-7.484-3.346-7.484-7.483 0-4.139 3.345-7.513 7.484-7.513h109.475c4.138 0 7.512 3.374 7.512 7.513 0 4.138-3.374 7.483-7.512 7.483zm0-27.185c-4.139 0-7.484-3.345-7.484-7.483 0-4.139 3.345-7.512 7.484-7.512h133.74c4.138 0 7.512 3.373 7.512 7.512s-3.374 7.483-7.512 7.483zm20.296-209.653c0-4.139 3.345-7.483 7.512-7.483 4.139 0 7.484 3.345 7.484 7.483v8.477c13.125 1.814 21.09 9.156 21.118 9.185 3.09 2.749 3.345 7.483.567 10.573-2.778 3.061-7.512 3.316-10.573.566-.028-.028-4.054-3.741-11.112-5.187v39.827c2.41.936 4.961 1.843 7.625 2.806 11.962 4.225 19.19 12.303 22.365 21.629 2.041 5.954 2.353 12.36 1.191 18.511-1.163 6.095-3.799 11.991-7.682 17.037-5.499 7.114-13.521 12.557-23.499 14.428v10.063c0 4.139-3.345 7.483-7.484 7.483-4.167 0-7.512-3.345-7.512-7.483v-9.468c-3.628-.17-6.86-.567-10.091-1.361-5.442-1.332-10.488-3.713-16.923-7.908-3.458-2.268-4.422-6.916-2.154-10.375 2.268-3.458 6.917-4.422 10.376-2.154 4.96 3.231 8.617 5.018 12.302 5.925 1.984.481 4.082.765 6.491.907v-49.976c-5.953-2.637-11.934-5.727-17.065-9.752-4.28-3.373-7.144-7.88-8.674-12.926-1.475-4.875-1.673-10.262-.624-15.506 1.021-5.188 3.346-10.375 6.634-14.541 3.798-4.848 9.014-8.73 15.59-10.688 1.417-.425 2.778-.793 4.139-1.049v-9.043zm14.995 79.399v43.06c4.876-1.531 8.816-4.48 11.679-8.192 2.438-3.146 4.053-6.832 4.791-10.63.708-3.714.51-7.483-.652-10.942-2.693-7.853-8.646-10.687-15.818-13.296zm-14.995-22.478v-32.429c-3.316 1.021-5.981 3.033-7.965 5.527-1.899 2.41-3.089 5.188-3.685 8.192-.567 2.892-.51 5.782.284 8.362.652 2.183 1.814 4.082 3.487 5.386 2.181 1.702 4.789 3.346 7.879 4.962z"/></g></svg>