<svg id="Flat" height="512" viewBox="0 0 512 512" width="512" xmlns="http://www.w3.org/2000/svg"><path d="m88 264h336v152h-336z" fill="#e44b4d"/><rect fill="#80b8cc" height="32" rx="16" width="384" x="64" y="232"/><path d="m56 296h64a0 0 0 0 1 0 0v32a0 0 0 0 1 0 0h-64a16 16 0 0 1 -16-16 16 16 0 0 1 16-16z" fill="#2f4054"/><path d="m408 296h64a0 0 0 0 1 0 0v32a0 0 0 0 1 0 0h-64a16 16 0 0 1 -16-16 16 16 0 0 1 16-16z" fill="#2f4054" transform="matrix(-1 0 0 -1 864 624)"/><path d="m245.8281 41.32477a23.95346 23.95346 0 0 1 -3.70265 21.656l10.42455 52.37578-31.05945 7.87914-10.7495-54.00839a23.99958 23.99958 0 1 1 35.08705-27.90253z" fill="#2f4054"/><path d="m411.1357 133.465-329.53617 65.589v-.00008a112.25663 112.25663 0 0 1 89.83747-99.44992l118.62838-23.61108a112.25661 112.25661 0 0 1 121.07027 57.472z" fill="#8acce7"/><rect fill="#80b8cc" height="32" rx="16" transform="matrix(.981 -.195 .195 .981 -30.718 52.202)" width="384" x="57.491" y="165.952"/><g fill="#c4d4e0"><path d="m402.34375 93.65723a30.62563 30.62563 0 0 1 0-43.31446 14.62673 14.62673 0 0 0 0-20.68554l11.3125-11.31446a30.62563 30.62563 0 0 1 0 43.31446 14.62673 14.62673 0 0 0 0 20.68554z"/><path d="m434.34375 109.65723a30.62563 30.62563 0 0 1 0-43.31446 14.62673 14.62673 0 0 0 0-20.68554l11.3125-11.31446a30.62563 30.62563 0 0 1 0 43.31446 14.62673 14.62673 0 0 0 0 20.68554z"/><path d="m34.34375 133.65723a30.62563 30.62563 0 0 1 0-43.31446 14.62673 14.62673 0 0 0 0-20.68554l11.3125-11.31446a30.62563 30.62563 0 0 1 0 43.31446 14.62673 14.62673 0 0 0 0 20.68554z"/><path d="m66.34375 149.65723a30.62563 30.62563 0 0 1 0-43.31446 14.62673 14.62673 0 0 0 0-20.68554l11.3125-11.31446a30.62563 30.62563 0 0 1 0 43.31446 14.62673 14.62673 0 0 0 0 20.68554z"/><path d="m152 448h208v40h-208z"/></g><path d="m272 440c0-8.83656-16-40-16-40s-16 31.16344-16 40a16 16 0 0 0 32 0z" fill="#e88604"/><path d="m200 440a15.99663 15.99663 0 0 1 -16.76532 15.98217c-8.60855-.40055-15.23468-7.81317-15.23468-16.43107v-31.5511l.80429.80429a113.83133 113.83133 0 0 0 23.27279 17.37941 15.989 15.989 0 0 1 7.92292 13.8163z" fill="#e88604"/><path d="m312 440a15.99663 15.99663 0 0 0 16.76532 15.98217c8.60855-.40055 15.23468-7.81317 15.23468-16.43107v-31.5511l-.80429.80429a113.83133 113.83133 0 0 1 -23.27279 17.37941 15.989 15.989 0 0 0 -7.92292 13.8163z" fill="#e88604"/><path d="m112 448h-8a24 24 0 0 0 -24 24v16h-32v-16a56 56 0 0 1 56-56h8a16 16 0 0 1 16 16 16 16 0 0 1 -16 16z" fill="#2f4054"/><path d="m400 448h8a24 24 0 0 1 24 24v16h32v-16a56 56 0 0 0 -56-56h-8a16 16 0 0 0 -16 16 16 16 0 0 0 16 16z" fill="#2f4054"/><path d="m16 480h480v16h-480z" fill="#262d43"/><circle cx="188" cy="444" fill="#eebe33" r="12"/><circle cx="324" cy="444" fill="#eebe33" r="12"/><circle cx="256" cy="444" fill="#eebe33" r="12"/></svg>