<svg id="Layer_1" height="512" viewBox="0 0 512 512" width="512" xmlns="http://www.w3.org/2000/svg" data-name="Layer 1"><path d="m262.65 434.92h-149.24a10.968 10.968 0 0 0 -10.97 10.97v44.14a10.968 10.968 0 0 0 10.97 10.97h149.24a10.966 10.966 0 0 0 10.96-10.97v-44.14a10.966 10.966 0 0 0 -10.96-10.97z" fill="#eb7288"/><path d="m396.54 11h-169.3a13.021 13.021 0 0 0 -13.02 13.02l.74 289.4.23-.1h181.35a13.023 13.023 0 0 0 13.02-13.03v-276.27a13.021 13.021 0 0 0 -13.02-13.02z" fill="#81c83d"/><g fill="#4ca987"><path d="m409.56 268.79v31.5a13.023 13.023 0 0 1 -13.02 13.03h-31.5a44.526 44.526 0 0 1 44.52-44.53z"/><path d="m409.56 24.02v31.5a44.517 44.517 0 0 1 -44.52-44.52h31.5a13.021 13.021 0 0 1 13.02 13.02z"/><path d="m311.89 91.92a65.115 65.115 0 1 1 -65.12 65.12 65.118 65.118 0 0 1 65.12-65.12z"/><path d="m237.16 275.15-21.67 18.67-.53 19.6 43.78-.1a44.507 44.507 0 0 0 -21.58-38.17z"/><path d="m227.24 11h31.13a44.523 44.523 0 0 1 -44.15 44.52v-31.5a13.021 13.021 0 0 1 13.02-13.02z"/></g><path d="m225.19 313.32-.23.1c-.23-.56-.48-1.12-.74-1.68a33.263 33.263 0 0 1 -2.32-6.61 29.944 29.944 0 0 1 -.83-6.94l.42-7.37 33.78-33.78a23.871 23.871 0 0 0 0-33.77l-5.63-5.63-35.42 28.05v-75.78l-76.38 63.26a31.819 31.819 0 0 0 -9.13 22.31v179.44h124.2v-49.15a31.85 31.85 0 0 0 31.85-31.85v-40.6z" fill="#ffd8b7"/><path d="m132.44 490.03v-44.14a10.968 10.968 0 0 1 10.97-10.97h-30a10.968 10.968 0 0 0 -10.97 10.97v44.14a10.968 10.968 0 0 0 10.97 10.97h30a10.968 10.968 0 0 1 -10.97-10.97z" fill="#d1627a"/><path d="m167.84 233.17 46.38-38.413v-24.847l-76.38 63.26a31.819 31.819 0 0 0 -9.13 22.31v179.44h30v-179.44a31.819 31.819 0 0 1 9.13-22.31z" fill="#efc6a8"/><path d="m137.07 455.3a13.462 13.462 0 1 1 -13.02 13.46 13.242 13.242 0 0 1 13.02-13.46z" fill="#f2cd7d"/><path d="m276.77 157.04a65.138 65.138 0 0 1 50.12-63.363 65.115 65.115 0 1 0 0 126.717 65.126 65.126 0 0 1 -50.12-63.354z" fill="#439171"/><path d="m221.067 375.845a6 6 0 0 1 -6-6v-15.924a5.99 5.99 0 0 1 1.008-3.328 37.257 37.257 0 0 0 2.713-36.305 37.693 37.693 0 0 1 -3.721-16.1c0-.115 0-.231.01-.346l.426-7.366a6 6 0 0 1 1.747-3.9l33.779-33.776a17.883 17.883 0 0 0 0-25.293l-1.851-1.852-72.3 57.244a6 6 0 1 1 -7.449-9.408l76.484-60.561a6 6 0 0 1 7.968.462l5.629 5.629a29.882 29.882 0 0 1 0 42.263l-32.159 32.166-.284 4.9a25.857 25.857 0 0 0 2.582 10.833 49.336 49.336 0 0 1 -2.582 46.485v14.173a6 6 0 0 1 -6 6.004z" fill="#efc6a8"/><path d="m311.89 150.662a10.57 10.57 0 1 1 10.569-10.569 6 6 0 1 0 12 0 22.607 22.607 0 0 0 -16.569-21.755v-3.92a6 6 0 0 0 -12 0v3.92a22.568 22.568 0 0 0 6 44.324 10.567 10.567 0 0 1 .115 21.134c-.038 0-.076-.006-.115-.006s-.077 0-.116.006a10.579 10.579 0 0 1 -10.454-10.564 6 6 0 0 0 -12 0 22.607 22.607 0 0 0 16.57 21.754v4.674a6 6 0 0 0 12 0v-4.674a22.568 22.568 0 0 0 -6-44.324z" fill="#c6e02d"/></svg>