<svg id="Layer_1" enable-background="new 0 0 512 512" height="512" viewBox="0 0 512 512" width="512" xmlns="http://www.w3.org/2000/svg"><g><path d="m443.368 203.435v292.554c0 4.701-3.811 8.511-8.511 8.511h-357.714c-4.701 0-8.511-3.811-8.511-8.511v-292.554c0-13.673 1.213-27.319 3.623-40.778l15.12-84.407h337.25l15.12 84.407c2.411 13.459 3.623 27.105 3.623 40.778z" fill="#e49a6b"/><path d="m439.745 162.657-15.12-84.407h-30l15.12 84.407c2.411 13.459 3.623 27.105 3.623 40.778v292.554c0 4.701-3.811 8.511-8.511 8.511h30c4.701 0 8.511-3.811 8.511-8.511v-292.554c0-13.673-1.212-27.319-3.623-40.778z" fill="#e0925b"/><path d="m434.926 78.251h-357.852c-5.564 0-10.074-4.51-10.074-10.074v-54.677c0-3.314 2.686-6 6-6h366c3.314 0 6 2.686 6 6v54.677c0 5.564-4.51 10.074-10.074 10.074z" fill="#e0925b"/><path d="m439 7.5h-30c3.314 0 6 2.686 6 6v54.677c0 5.564-4.51 10.074-10.074 10.074h30c5.564 0 10.074-4.51 10.074-10.074v-54.677c0-3.314-2.686-6-6-6z" fill="#d48145"/><g><path d="m324.106 342.81h-136.212c-2.427 0-4.394-1.967-4.394-4.394v-5.106c0-40.041 32.459-72.5 72.5-72.5 40.041 0 72.5 32.459 72.5 72.5v5.106c0 2.427-1.967 4.394-4.394 4.394z" fill="#f8f7f7"/><path d="m256 260.81c-5.144 0-10.159.544-15 1.563 32.841 6.91 57.5 36.04 57.5 70.937v5.106c0 2.427-1.967 4.394-4.394 4.394h30c2.427 0 4.394-1.967 4.394-4.394v-5.106c0-40.04-32.459-72.5-72.5-72.5z" fill="#efefef"/></g><path d="m234 43.231h44v76h-44z" fill="#f8f7f7"/><g><path d="m245.103 335.311c-9.931.344-9.923 14.659 0 15h79.003c6.559 0 11.894-5.335 11.894-11.894v-5.106c-4.407-106.156-155.633-106.074-160 0v5.106c0 6.559 5.335 11.894 11.894 11.894h21.824c9.931-.344 9.923-14.659 0-15h-18.718v-2c3.581-86.252 126.452-86.185 130 0v2z"/><path d="m452.5 68.18v-54.68c0-7.444-6.056-13.5-13.5-13.5h-299.539c-9.931.344-9.923 14.659 0 15h298.039v53.18c0 1.417-1.153 2.57-2.57 2.57h-149.43v-27.519c0-4.142-3.358-7.5-7.5-7.5h-44c-4.142 0-7.5 3.358-7.5 7.5v27.519h-149.43c-1.417 0-2.57-1.153-2.57-2.57v-53.18h30.808c9.931-.344 9.923-14.659 0-15h-32.308c-7.444 0-13.5 6.056-13.5 13.5v54.68c0 9.688 7.882 17.57 17.57 17.57h1.338l-13.54 75.588c-2.48 13.85-3.737 28.015-3.737 42.102v292.55c0 8.828 7.182 16.01 16.01 16.01h357.72c8.828 0 16.01-7.182 16.01-16.01v-237.99c-.344-9.931-14.659-9.923-15 0v237.99c0 .557-.453 1.01-1.01 1.01h-357.721c-.557 0-1.01-.453-1.01-1.01v-292.55c0-13.202 1.179-26.478 3.502-39.458l14.014-78.232h132.854v33.481c0 4.142 3.358 7.5 7.5 7.5h44c4.142 0 7.5-3.358 7.5-7.5v-33.481h132.854l14.013 78.232c2.324 12.98 3.503 26.256 3.503 39.458v18.868c.344 9.931 14.659 9.923 15 0v-18.868c0-14.086-1.257-28.251-3.738-42.102l-13.54-75.588h1.338c9.688 0 17.57-7.882 17.57-17.57zm-182 43.551h-29v-61h29z"/></g></g></svg>