<svg id="flat" height="512" viewBox="0 0 512 512" width="512" xmlns="http://www.w3.org/2000/svg"><path d="m368 240 126.926-61.829a16 16 0 0 0 7.381-21.577l-1.873-3.746a16 16 0 0 0 -20.853-7.446l-124.581 56.598z" fill="#d38f29"/><circle cx="364" cy="220" fill="#aa6b17" r="20"/><path d="m326.007 255a8 8 0 0 1 -4.445-14.657l34-23a8 8 0 1 1 8.875 13.313l-34 23a7.963 7.963 0 0 1 -4.43 1.344z" fill="#d38f29"/><path d="m341.221 247.658c26.127 75.115-27.121 161.894-118.921 193.827s-187.415-3.073-213.542-78.185z" fill="#ccc"/><path d="m88 290.035c14.6-7.362 30.733-14.56 48-21.319q11.3-4.424 23.22-8.575c91.807-31.933 173.291-37.522 182-12.484s-58.655 71.223-150.462 103.156-173.291 37.522-182 12.487c-2.943-8.462 2.8-19.338 15.242-31.263" fill="#a0a09d"/><path d="m164.18 359.42c-32.9 9.87-63.56 16.09-88.85 18.46-47.45-8.44-59.87-67.67-59.98-85.49a12.317 12.317 0 0 1 12.33-12.39 12.325 12.325 0 0 0 12.32-12.32v-56.58a19.09 19.09 0 1 1 38.18 0c0 .32 0 .64-.02.96-2.05 41.84-.78 134.57 85.84 146.94z" fill="#f9ee64"/><circle cx="72" cy="128" fill="#aa6f21" r="16"/><circle cx="128" cy="72" fill="#79c143" r="16"/><g fill="#d38f29"><path d="m104 160h16v16h-16z"/><path d="m96 232h16v16h-16z"/><path d="m144 304h16v16h-16z"/></g><path d="m16 152h16v16h-16z" fill="#f23f00"/><path d="m83.563 366.656c-26.79-17.856-27.563-36.58-27.563-38.656h16s0-.07 0-.205c.027.5.889 12.514 20.441 25.549z" fill="#c6b834"/><path d="m152 152h-16c0-27 25.268-52.581 26.343-53.657l11.313 11.313-5.656-5.656 5.664 5.65a101.832 101.832 0 0 0 -11.175 14.039c-6.862 10.363-10.489 20.153-10.489 28.311z" fill="#79c143"/><path d="m145.854 293.122c-22.968-27.562-21.645-53.012-16.49-69.508a77.3 77.3 0 0 1 16.979-29.271l11.313 11.313-5.656-5.656 5.678 5.636c-1.414 1.435-34.218 35.619.468 77.243z" fill="#f23f00"/><path d="m310.9 273.86c-1.03 8.77-3.03 18.27-6.9 22.14l.08.38c-14.92 10.27-33.66 20.81-55.15 30.88 4.67-3.91 25.48-23.02 30.14-57.33a16.037 16.037 0 0 1 15.86-13.93h.08a16 16 0 0 1 15.89 17.86z" fill="#f9ee64"/><g opacity=".3"><path d="m40 304c27.635-19.507 20.917-87.239 17.433-111.916a19.091 19.091 0 0 0 -17.433 19.016v56.58a12.325 12.325 0 0 1 -12.32 12.32 12.317 12.317 0 0 0 -12.33 12.39c.052 8.439 2.868 26.163 10.854 43.382-1.428-11.317 1.384-23.01 13.796-31.772z" fill="#fff"/></g><g opacity=".3"><path d="m81.534 115.173a15.985 15.985 0 1 0 -18.034 26.363c-1.867-14.9 9.156-22.614 18.034-26.363z" fill="#fff"/></g><g opacity=".3"><path d="m137.534 59.173a15.985 15.985 0 1 0 -18.034 26.363c-1.867-14.9 9.156-22.614 18.034-26.363z" fill="#fff"/></g><g opacity=".3"><path d="m265.021 308.429c26.82-10.549 36.409-36.565 39.564-49.248a15.9 15.9 0 0 0 -9.575-3.181h-.08a16.037 16.037 0 0 0 -15.86 13.93 94.933 94.933 0 0 1 -14.049 38.499z" fill="#fff"/></g><path d="m501.224 154.428-.79-1.581a16 16 0 0 0 -20.853-7.446l-117.339 53.309c71.119-6.468 118.875-31.59 138.982-44.282z" fill="#efb66a"/><g opacity=".3"><path d="m118.034 371.22c-58.706 12.265-102.981 10.165-109.275-7.92 26.128 75.113 121.731 110.117 213.541 78.185a210.548 210.548 0 0 0 56.023-29.417c-106.023 17.716-146.671-20.75-160.289-40.848z" fill="#fff"/></g></svg>